<svg xmlns="http://www.w3.org/2000/svg" xmlns:xlink="http://www.w3.org/1999/xlink" width="891" zoomAndPan="magnify" viewBox="0 0 668.25 257.99999" height="344" preserveAspectRatio="xMidYMid meet" version="1.0"><defs><g/></defs><g fill="#d6223b" fill-opacity="1"><g transform="translate(75.504657, 158.966356)"><g><path d="M 5.703125 0 L 5.703125 -63.921875 L 28.09375 -63.921875 C 35.851562 -63.921875 41.734375 -62.429688 45.734375 -59.453125 C 49.742188 -56.484375 51.75 -52.132812 51.75 -46.40625 C 51.75 -43.269531 50.941406 -40.507812 49.328125 -38.125 C 47.722656 -35.738281 45.488281 -33.988281 42.625 -32.875 C 45.90625 -32.0625 48.488281 -30.410156 50.375 -27.921875 C 52.257812 -25.429688 53.203125 -22.382812 53.203125 -18.78125 C 53.203125 -12.632812 51.238281 -7.984375 47.3125 -4.828125 C 43.394531 -1.671875 37.804688 -0.0625 30.546875 0 Z M 18.875 -27.828125 L 18.875 -10.578125 L 30.15625 -10.578125 C 33.257812 -10.578125 35.679688 -11.316406 37.421875 -12.796875 C 39.160156 -14.273438 40.03125 -16.316406 40.03125 -18.921875 C 40.03125 -24.773438 37.003906 -27.742188 30.953125 -27.828125 Z M 18.875 -37.140625 L 28.625 -37.140625 C 35.269531 -37.253906 38.59375 -39.898438 38.59375 -45.078125 C 38.59375 -47.984375 37.75 -50.070312 36.0625 -51.34375 C 34.382812 -52.613281 31.726562 -53.25 28.09375 -53.25 L 18.875 -53.25 Z M 18.875 -37.140625 "/></g></g><g transform="translate(132.876787, 158.966356)"><g><path d="M 57.734375 0 L 44.5625 0 L 44.5625 -27.390625 L 18.875 -27.390625 L 18.875 0 L 5.703125 0 L 5.703125 -63.921875 L 18.875 -63.921875 L 18.875 -38.015625 L 44.5625 -38.015625 L 44.5625 -63.921875 L 57.734375 -63.921875 Z M 57.734375 0 "/></g></g><g transform="translate(196.394364, 158.966356)"><g><path d="M 41.796875 -13.171875 L 18.703125 -13.171875 L 14.3125 0 L 0.3125 0 L 24.09375 -63.921875 L 36.3125 -63.921875 L 60.234375 0 L 46.21875 0 Z M 22.25 -23.84375 L 38.234375 -23.84375 L 30.203125 -47.765625 Z M 22.25 -23.84375 "/></g></g><g transform="translate(256.883113, 158.966356)"><g><path d="M 29.375 -23.40625 L 18.875 -23.40625 L 18.875 0 L 5.703125 0 L 5.703125 -63.921875 L 29.453125 -63.921875 C 37.003906 -63.921875 42.828125 -62.238281 46.921875 -58.875 C 51.023438 -55.507812 53.078125 -50.753906 53.078125 -44.609375 C 53.078125 -40.242188 52.128906 -36.601562 50.234375 -33.6875 C 48.347656 -30.78125 45.488281 -28.460938 41.65625 -26.734375 L 55.484375 -0.609375 L 55.484375 0 L 41.359375 0 Z M 18.875 -34.0625 L 29.5 -34.0625 C 32.8125 -34.0625 35.375 -34.898438 37.1875 -36.578125 C 39 -38.265625 39.90625 -40.585938 39.90625 -43.546875 C 39.90625 -46.554688 39.046875 -48.925781 37.328125 -50.65625 C 35.617188 -52.382812 32.992188 -53.25 29.453125 -53.25 L 18.875 -53.25 Z M 18.875 -34.0625 "/></g></g><g transform="translate(314.255243, 158.966356)"><g><path d="M 41.796875 -13.171875 L 18.703125 -13.171875 L 14.3125 0 L 0.3125 0 L 24.09375 -63.921875 L 36.3125 -63.921875 L 60.234375 0 L 46.21875 0 Z M 22.25 -23.84375 L 38.234375 -23.84375 L 30.203125 -47.765625 Z M 22.25 -23.84375 "/></g></g><g transform="translate(374.743992, 158.966356)"><g><path d="M 53.828125 -53.25 L 34.234375 -53.25 L 34.234375 0 L 21.078125 0 L 21.078125 -53.25 L 1.75 -53.25 L 1.75 -63.921875 L 53.828125 -63.921875 Z M 53.828125 -53.25 "/></g></g></g><g fill="#ffffff" fill-opacity="1"><g transform="translate(430.360285, 158.966356)"><g><path d="M 5.53125 -6.234375 C 5.53125 -8.253906 6.207031 -9.890625 7.5625 -11.140625 C 8.925781 -12.398438 10.632812 -13.03125 12.6875 -13.03125 C 14.757812 -13.03125 16.476562 -12.398438 17.84375 -11.140625 C 19.207031 -9.890625 19.890625 -8.253906 19.890625 -6.234375 C 19.890625 -4.242188 19.210938 -2.625 17.859375 -1.375 C 16.515625 -0.132812 14.789062 0.484375 12.6875 0.484375 C 10.601562 0.484375 8.890625 -0.132812 7.546875 -1.375 C 6.203125 -2.625 5.53125 -4.242188 5.53125 -6.234375 Z M 5.53125 -6.234375 "/></g></g></g><g fill="#d6223b" fill-opacity="1"><g transform="translate(436.760925, 158.966356)"><g><path d="M 5.53125 -6.234375 C 5.53125 -8.253906 6.207031 -9.890625 7.5625 -11.140625 C 8.925781 -12.398438 10.632812 -13.03125 12.6875 -13.03125 C 14.757812 -13.03125 16.476562 -12.398438 17.84375 -11.140625 C 19.207031 -9.890625 19.890625 -8.253906 19.890625 -6.234375 C 19.890625 -4.242188 19.210938 -2.625 17.859375 -1.375 C 16.515625 -0.132812 14.789062 0.484375 12.6875 0.484375 C 10.601562 0.484375 8.890625 -0.132812 7.546875 -1.375 C 6.203125 -2.625 5.53125 -4.242188 5.53125 -6.234375 Z M 5.53125 -6.234375 "/></g></g></g><g fill="#ffffff" fill-opacity="1"><g transform="translate(462.876145, 158.966356)"><g><path d="M 22.921875 -63.921875 L 39.328125 -17.5625 L 55.671875 -63.921875 L 72.96875 -63.921875 L 72.96875 0 L 59.75 0 L 59.75 -17.46875 L 61.0625 -47.625 L 43.8125 0 L 34.765625 0 L 17.5625 -47.59375 L 18.875 -17.46875 L 18.875 0 L 5.703125 0 L 5.703125 -63.921875 Z M 22.921875 -63.921875 "/></g></g><g transform="translate(541.625649, 158.966356)"><g><path d="M 44.15625 -27.703125 L 18.875 -27.703125 L 18.875 -10.578125 L 48.546875 -10.578125 L 48.546875 0 L 5.703125 0 L 5.703125 -63.921875 L 48.46875 -63.921875 L 48.46875 -53.25 L 18.875 -53.25 L 18.875 -38.015625 L 44.15625 -38.015625 Z M 44.15625 -27.703125 "/></g></g></g></svg>